<svg width="325" height="391" viewBox="0 0 325 391" fill="none" xmlns="http://www.w3.org/2000/svg">
<path opacity="0.64" d="M162.5 390.873C252.246 390.873 325 376.235 325 358.179C325 340.123 252.246 325.486 162.5 325.486C72.7537 325.486 0 340.123 0 358.179C0 376.235 72.7537 390.873 162.5 390.873Z" fill="#C4C4C4"/>
<path d="M84.6021 352.926C86.883 345.53 93.8641 341.59 105.2 338.273C112.388 336.199 121.512 335.231 135.82 332.328C142.801 330.946 147.708 328.181 147.708 328.181V336.13C147.708 336.13 100.361 345.461 92.9656 357.695C89.3713 363.709 90.4773 378.431 107.412 379.952C102.228 380.712 93.7259 379.399 89.164 374.768C83.4962 369.031 81.9756 361.359 84.6021 352.926Z" fill="#282323" stroke="black" stroke-width="4" stroke-miterlimit="10" stroke-linecap="round" stroke-linejoin="round"/>
<path d="M147.708 336.13C147.708 336.13 119.369 341.383 104.232 347.88C90.9611 353.617 91.3758 359.561 91.0303 365.644C90.8229 369.169 93.3112 377.878 103.403 379.399C115.429 381.196 129.599 379.26 147.708 367.717C147.708 339.448 147.708 336.13 147.708 336.13Z" fill="#EDAE49"/>
<path opacity="0.37" d="M91.0303 365.643C91.3067 360.736 91.0994 355.898 98.0113 351.198C97.7349 352.925 97.6657 354.584 97.5966 356.312C97.3892 359.837 105.891 355.276 115.982 356.727C126.489 358.317 132.709 370.344 147.708 362.257C147.708 363.985 147.708 365.782 147.708 367.648C129.599 379.191 115.429 381.057 103.403 379.329C93.3112 377.878 90.8229 369.099 91.0303 365.643Z" fill="#EDAE49"/>
<path d="M147.708 336.13C147.708 336.13 119.369 341.383 104.232 347.88C90.9611 353.617 91.3758 359.561 91.0303 365.644C90.8229 369.169 93.3112 377.878 103.403 379.399C115.429 381.196 129.599 379.26 147.708 367.717C147.708 339.448 147.708 336.13 147.708 336.13Z" stroke="black" stroke-width="4" stroke-miterlimit="10" stroke-linecap="round" stroke-linejoin="round"/>
<path d="M121.443 352.373C119.162 353.617 119.715 365.713 125.244 367.372" stroke="black" stroke-width="4" stroke-miterlimit="10" stroke-linecap="round" stroke-linejoin="round"/>
<path d="M130.083 351.474C127.733 354.792 129.392 362.602 133.608 364.538" stroke="black" stroke-width="4" stroke-miterlimit="10" stroke-linecap="round" stroke-linejoin="round"/>
<path d="M138.032 348.71C135.681 352.027 137.34 359.838 141.557 361.773" stroke="black" stroke-width="4" stroke-miterlimit="10" stroke-linecap="round" stroke-linejoin="round"/>
<path d="M219.592 312.905C204.663 323.273 183.443 329.218 161.256 329.218C139.137 329.218 117.849 323.273 102.919 312.905C96.0759 308.136 84.6021 298.183 84.6021 284.912C84.6021 271.641 96.0759 261.688 102.919 256.919C117.849 246.551 139.068 240.606 161.256 240.606C183.374 240.606 204.663 246.551 219.592 256.919C226.435 261.688 237.909 271.641 237.909 284.912C237.909 298.183 226.435 308.136 219.592 312.905Z" fill="#151E28"/>
<path d="M287.952 295.971C287.675 297.354 287.399 298.667 286.984 300.049C276.201 339.378 224.224 369.238 161.67 369.238C98.9789 369.238 46.8628 339.24 36.2875 299.773C36.0111 298.667 35.7346 297.561 35.5272 296.455C35.2507 294.382 35.3199 292.308 35.7346 290.234C38.292 278.622 52.3924 271.918 67.2531 275.235C76.9989 277.378 84.6021 283.392 87.9889 290.511C88.3345 292.032 88.8875 293.552 89.5096 295.004C93.1038 303.298 100.292 309.519 105.131 312.975C119.577 323.343 140.243 329.287 161.67 329.287C183.167 329.287 203.764 323.343 218.21 312.975C223.118 309.45 230.375 303.16 233.9 294.865C234.453 293.552 234.937 292.101 235.283 290.718C238.6 283.53 246.273 277.516 256.088 275.305C270.948 271.987 285.049 278.761 287.606 290.304C288.09 292.101 288.159 294.036 287.952 295.971Z" fill="#00798C"/>
<path opacity="0.67" d="M287.606 290.165C287.537 289.82 287.468 289.543 287.33 289.198C287.123 290.304 286.846 291.479 286.501 292.585C275.856 331.914 223.809 361.773 161.325 361.773C98.6337 361.773 46.5176 331.775 35.9423 292.308C35.804 291.893 35.7349 291.479 35.5967 290.995C35.3202 292.792 35.2511 294.589 35.5276 296.317C35.7349 297.423 36.0114 298.529 36.2879 299.635C46.8632 339.102 98.9793 369.1 161.671 369.1C224.224 369.1 276.202 339.24 286.984 299.911C287.33 298.598 287.676 297.216 287.952 295.833C288.159 294.036 288.09 292.101 287.606 290.165Z" fill="#151E28"/>
<path d="M287.952 295.971C287.675 297.354 287.399 298.667 286.984 300.049C276.201 339.378 224.224 369.238 161.67 369.238C98.9789 369.238 46.8628 339.24 36.2875 299.773C36.0111 298.667 35.7346 297.561 35.5272 296.455C35.2507 294.382 35.3199 292.308 35.7346 290.234C38.292 278.622 52.3924 271.918 67.2531 275.235C76.9989 277.378 84.6021 283.392 87.9889 290.511C88.3345 292.032 88.8875 293.552 89.5096 295.004C93.1038 303.298 100.292 309.519 105.131 312.975C119.577 323.343 140.243 329.287 161.67 329.287C183.167 329.287 203.764 323.343 218.21 312.975C223.118 309.45 230.375 303.16 233.9 294.865C234.453 293.552 234.937 292.101 235.283 290.718C238.6 283.53 246.273 277.516 256.088 275.305C270.948 271.987 285.049 278.761 287.606 290.304C288.09 292.101 288.159 294.036 287.952 295.971Z" stroke="black" stroke-width="4" stroke-miterlimit="10" stroke-linecap="round" stroke-linejoin="round"/>
<path d="M162.5 308.136C196.894 308.136 224.777 298.667 224.777 286.986C224.777 275.305 196.894 265.835 162.5 265.835C128.105 265.835 100.223 275.305 100.223 286.986C100.223 298.667 128.105 308.136 162.5 308.136Z" fill="#9B2121"/>
<path d="M162.5 308.136C196.894 308.136 224.777 298.667 224.777 286.986C224.777 275.305 196.894 265.835 162.5 265.835C128.105 265.835 100.223 275.305 100.223 286.986C100.223 298.667 128.105 308.136 162.5 308.136Z" stroke="black" stroke-width="4" stroke-miterlimit="10" stroke-linecap="round" stroke-linejoin="round"/>
<path d="M233.417 240.814H89.9244C78.9344 240.814 70.4327 231.206 71.8151 220.285L78.1741 169.483C79.9712 154.967 92.2745 144.116 106.928 144.116H216.551C231.136 144.116 243.439 154.967 245.305 169.483L251.664 220.285C252.908 231.206 244.407 240.814 233.417 240.814Z" fill="#F1534D"/>
<path d="M233.417 240.814H89.9244C78.9344 240.814 70.4327 231.206 71.8151 220.285L78.1741 169.483C79.9712 154.967 92.2745 144.116 106.928 144.116H216.551C231.136 144.116 243.439 154.967 245.305 169.483L251.664 220.285C252.908 231.206 244.407 240.814 233.417 240.814Z" stroke="black" stroke-width="4" stroke-miterlimit="10" stroke-linecap="round" stroke-linejoin="round"/>
<path d="M105.477 187.039L104.094 204.388" stroke="black" stroke-width="4" stroke-miterlimit="10" stroke-linecap="round" stroke-linejoin="round"/>
<path d="M218.902 187.039L220.284 204.388" stroke="black" stroke-width="4" stroke-miterlimit="10" stroke-linecap="round" stroke-linejoin="round"/>
<path d="M233.417 240.814H89.9244C78.9344 240.814 70.4327 231.207 71.8151 220.286L78.1741 169.483C79.9712 154.968 92.2745 144.116 106.928 144.116H216.551C231.136 144.116 243.439 154.968 245.305 169.483L251.664 220.286C252.908 231.207 244.407 240.814 233.417 240.814Z" fill="#F1534D"/>
<g opacity="0.24">
<path opacity="0.24" d="M78.105 174.874C79.9021 160.359 92.2053 149.507 106.859 149.507H216.482C231.066 149.507 243.37 160.359 245.236 174.874L251.526 225.262C251.733 223.673 251.802 222.014 251.595 220.286L245.236 169.483C243.439 154.968 231.136 144.116 216.482 144.116H106.859C92.2745 144.116 79.9712 154.968 78.105 169.483L71.746 220.286C71.5386 221.945 71.5386 223.603 71.8151 225.262L78.105 174.874Z" fill="#9B2121"/>
<path opacity="0.24" d="M113.218 149.507C113.218 149.507 121.719 151.028 122.411 155.728C122.964 159.53 122.894 162.018 124.346 163.539C125.797 165.059 129.184 168.17 136.027 168.17C132.226 164.368 132.156 151.028 131.12 151.028C130.152 151.028 127.664 144.392 127.664 144.392L124.346 142.872C124.415 142.872 112.181 144.392 113.218 149.507Z" fill="#9B2121"/>
<path opacity="0.24" d="M204.041 149.507C204.041 149.507 195.539 151.028 194.848 155.728C194.295 159.53 194.364 162.018 192.913 163.539C191.461 164.99 188.074 168.17 181.231 168.17C185.033 164.368 185.102 151.028 186.139 151.028C187.107 151.028 189.595 144.392 189.595 144.392L192.913 142.872C192.844 142.872 205.078 144.392 204.041 149.507Z" fill="#9B2121"/>
</g>
<path d="M233.417 240.814H89.9244C78.9344 240.814 70.4327 231.207 71.8151 220.286L78.1741 169.483C79.9712 154.968 92.2745 144.116 106.928 144.116H216.551C231.136 144.116 243.439 154.968 245.305 169.483L251.664 220.286C252.908 231.207 244.407 240.814 233.417 240.814Z" stroke="black" stroke-width="4" stroke-miterlimit="10" stroke-linecap="round" stroke-linejoin="round"/>
<path d="M105.476 187.039L104.094 204.388" stroke="black" stroke-width="4" stroke-miterlimit="10" stroke-linecap="round" stroke-linejoin="round"/>
<path d="M218.901 187.039L220.284 204.388" stroke="black" stroke-width="4" stroke-miterlimit="10" stroke-linecap="round" stroke-linejoin="round"/>
<path d="M143.216 115.224L120.476 114.049L109.831 115.224C109.831 115.224 102.712 120.546 102.712 121.998C102.712 123.449 103.403 135.269 103.403 135.269C103.403 135.269 120.199 137.55 121.996 139.278C123.793 141.006 134.438 150.959 134.438 150.959L144.737 146.95L150.128 132.573L143.216 115.224Z" fill="#9B2121"/>
<path d="M139.207 106.445H112.941C102.366 106.445 93.7261 115.016 93.7261 125.661C93.7261 136.236 102.297 144.876 112.941 144.876H116.397C121.996 144.876 126.489 149.369 126.489 154.967V156.004C126.489 162.709 131.949 168.169 138.654 168.169V155.728C138.792 155.728 138.93 155.866 138.93 156.004V154.967C138.93 142.526 128.839 132.434 116.397 132.434H112.941C109.209 132.434 106.168 129.393 106.168 125.661C106.168 121.928 109.209 118.887 112.941 118.887H139.207V106.445Z" fill="#F1534D"/>
<path d="M137.617 147.157C134.437 138.586 126.143 132.365 116.466 132.365H113.01C109.278 132.365 106.236 129.324 106.236 125.592C106.236 121.859 109.278 118.818 113.01 118.818H139.276V106.376H113.01C102.435 106.376 93.7949 114.947 93.7949 125.592C93.7949 136.167 102.366 144.807 113.01 144.807H116.466C122.065 144.807 126.558 149.3 126.558 154.898V155.935C126.558 162.64 132.018 168.1 138.723 168.1" stroke="black" stroke-width="4" stroke-miterlimit="10" stroke-linecap="round" stroke-linejoin="round"/>
<path d="M173.283 115.224L196.023 114.049L206.667 115.224C206.667 115.224 213.787 120.546 213.787 121.998C213.787 123.449 213.095 135.269 213.095 135.269C213.095 135.269 196.299 137.55 194.502 139.278C192.705 141.075 182.061 150.959 182.061 150.959L171.762 146.95L166.371 132.573L173.283 115.224Z" fill="#9B2121"/>
<path d="M177.292 106.446H203.557C214.132 106.446 222.772 115.017 222.772 125.661C222.772 136.236 214.201 144.876 203.557 144.876H200.101C194.502 144.876 190.01 149.369 190.01 154.968V156.004C190.01 162.709 184.549 168.17 177.844 168.17V155.728C177.706 155.728 177.568 155.866 177.568 156.004V154.968C177.568 142.526 187.659 132.435 200.101 132.435H203.557C207.289 132.435 210.331 129.393 210.331 125.661C210.331 121.929 207.289 118.887 203.557 118.887H177.292V106.446Z" fill="#F1534D"/>
<path d="M178.95 147.157C182.13 138.586 190.424 132.365 200.101 132.365H203.557C207.289 132.365 210.331 129.324 210.331 125.592C210.331 121.859 207.289 118.818 203.557 118.818H177.292V106.376H203.557C214.132 106.376 222.772 114.947 222.772 125.592C222.772 136.167 214.201 144.807 203.557 144.807H200.101C194.502 144.807 190.01 149.3 190.01 154.898V155.935C190.01 162.64 184.549 168.1 177.844 168.1" stroke="black" stroke-width="4" stroke-miterlimit="10" stroke-linecap="round" stroke-linejoin="round"/>
<path d="M159.528 158.354C174.416 158.354 186.485 146.285 186.485 131.398C186.485 116.51 174.416 104.441 159.528 104.441C144.64 104.441 132.571 116.51 132.571 131.398C132.571 146.285 144.64 158.354 159.528 158.354Z" fill="#F46262"/>
<path d="M133.747 123.449C141.211 128.218 150.059 131.052 159.528 131.052C168.998 131.052 177.845 128.287 185.31 123.449C181.923 112.39 171.693 104.372 159.528 104.372C147.432 104.441 137.133 112.459 133.747 123.449Z" fill="#F1534D"/>
<path d="M159.528 158.354C174.416 158.354 186.485 146.285 186.485 131.398C186.485 116.51 174.416 104.441 159.528 104.441C144.64 104.441 132.571 116.51 132.571 131.398C132.571 146.285 144.64 158.354 159.528 158.354Z" stroke="black" stroke-width="4" stroke-miterlimit="10" stroke-linecap="round" stroke-linejoin="round"/>
<path d="M159.528 147.019C150.75 147.019 143.63 139.899 143.63 131.121V119.233C143.63 117.021 145.427 115.224 147.639 115.224H171.486C173.697 115.224 175.494 117.021 175.494 119.233V131.121C175.425 139.899 168.306 147.019 159.528 147.019Z" fill="#FFC897"/>
<path d="M171.486 115.224H147.639C145.427 115.224 143.63 117.159 143.63 119.509V129.255C148.607 131.121 153.929 132.158 159.528 132.158C165.127 132.158 170.449 131.121 175.425 129.255V119.509C175.425 117.159 173.628 115.224 171.486 115.224Z" fill="#E5A973"/>
<path d="M159.528 147.019C150.75 147.019 143.63 139.899 143.63 131.121V119.233C143.63 117.021 145.427 115.224 147.639 115.224H171.486C173.697 115.224 175.494 117.021 175.494 119.233V131.121C175.425 139.899 168.306 147.019 159.528 147.019Z" stroke="black" stroke-width="4" stroke-miterlimit="10" stroke-linecap="round" stroke-linejoin="round"/>
<path d="M176.739 326.107H161.947V373.316H176.739V326.107Z" fill="#607691"/>
<path d="M176.739 326.107H161.947V373.316H176.739V326.107Z" stroke="black" stroke-width="4" stroke-miterlimit="10" stroke-linecap="round" stroke-linejoin="round"/>
<path d="M89.4406 294.865C88.8185 293.414 88.3346 291.962 87.9199 290.373C88.6802 291.893 89.1641 293.345 89.4406 294.865Z" stroke="black" stroke-width="4" stroke-miterlimit="10" stroke-linecap="round" stroke-linejoin="round"/>
<path d="M233.97 294.727C234.246 293.276 234.73 291.893 235.352 290.58C235.007 292.032 234.523 293.414 233.97 294.727Z" stroke="black" stroke-width="4" stroke-miterlimit="10" stroke-linecap="round" stroke-linejoin="round"/>
<path d="M233.762 291.409H89.6478C84.5329 291.409 80.1784 287.607 79.4872 282.493L70.5017 212.129C69.7414 206.046 74.5106 200.586 80.6622 200.586H242.748C248.899 200.586 253.668 205.977 252.908 212.129L243.923 282.493C243.231 287.538 238.877 291.409 233.762 291.409Z" fill="#B5B5B5"/>
<path opacity="0.21" d="M243.853 278.069C243.231 283.184 238.877 286.986 233.693 286.986H89.6477C84.5329 286.986 80.1783 283.184 79.4871 278.069L70.6398 208.742C70.4325 209.848 70.3634 210.954 70.5016 212.129L79.4871 282.493C80.1092 287.608 84.4637 291.409 89.6477 291.409H233.762C238.877 291.409 243.231 287.608 243.922 282.493L252.908 212.129C253.046 210.954 252.977 209.848 252.77 208.742L243.853 278.069Z" fill="#7E7E7E"/>
<path opacity="0.21" d="M70.5708 212.751C71.4002 208.051 75.5474 204.319 80.5931 204.319H242.678C247.793 204.319 251.871 207.982 252.701 212.751L252.77 212.06C253.53 205.978 248.761 200.517 242.609 200.517H80.6622C74.5106 200.517 69.7414 205.909 70.5017 212.06L70.5708 212.751Z" fill="#7E7E7E"/>
<path d="M233.762 291.409H89.6478C84.5329 291.409 80.1784 287.607 79.4872 282.493L70.5017 212.129C69.7414 206.046 74.5106 200.586 80.6622 200.586H242.748C248.899 200.586 253.668 205.977 252.908 212.129L243.923 282.493C243.231 287.538 238.877 291.409 233.762 291.409Z" stroke="black" stroke-width="4" stroke-miterlimit="10" stroke-linecap="round" stroke-linejoin="round"/>
<path opacity="0.66" d="M168.513 241.713C165.403 241.713 162.914 239.225 162.914 236.114C162.914 235.907 162.914 235.7 162.984 235.492C162.431 235.423 161.878 235.354 161.325 235.354C156.279 235.354 152.132 239.501 152.132 244.547C152.132 249.593 156.279 253.74 161.325 253.74C166.37 253.74 170.518 249.593 170.518 244.547C170.518 243.51 170.31 242.473 170.034 241.506C169.55 241.575 169.066 241.713 168.513 241.713Z" fill="#B5B5B5"/>
<path d="M239.845 352.926C237.564 345.53 230.583 341.59 219.247 338.273C212.059 336.199 202.935 335.231 188.627 332.328C181.646 330.946 176.739 328.181 176.739 328.181V336.13C176.739 336.13 224.086 345.461 231.481 357.695C235.076 363.709 233.97 378.431 217.035 379.952C222.219 380.712 230.721 379.399 235.283 374.768C240.951 369.031 242.471 361.359 239.845 352.926Z" fill="#282323" stroke="black" stroke-width="4" stroke-miterlimit="10" stroke-linecap="round" stroke-linejoin="round"/>
<path d="M176.739 336.13C176.739 336.13 205.078 341.383 220.215 347.88C233.486 353.617 233.071 359.561 233.417 365.644C233.624 369.169 231.136 377.878 221.044 379.399C209.018 381.196 194.848 379.26 176.739 367.717C176.739 339.448 176.739 336.13 176.739 336.13Z" fill="#EDAE49"/>
<path opacity="0.37" d="M233.417 365.643C233.14 360.736 233.348 355.898 226.436 351.198C226.712 352.925 226.781 354.584 226.85 356.312C227.058 359.837 224.57 368.547 214.478 370.067C203.972 371.657 191.738 370.344 176.739 362.257C176.739 363.985 176.739 365.782 176.739 367.648C194.848 379.191 209.018 381.057 221.044 379.329C231.205 377.878 233.624 369.099 233.417 365.643Z" fill="#EDAE49"/>
<path d="M176.739 336.13C176.739 336.13 205.078 341.383 220.215 347.88C233.486 353.617 233.071 359.561 233.417 365.644C233.624 369.169 231.136 377.878 221.044 379.399C209.018 381.196 194.848 379.26 176.739 367.717C176.739 339.448 176.739 336.13 176.739 336.13Z" stroke="black" stroke-width="4" stroke-miterlimit="10" stroke-linecap="round" stroke-linejoin="round"/>
<path d="M203.004 352.373C205.285 353.617 204.732 365.713 199.203 367.372" stroke="black" stroke-width="4" stroke-miterlimit="10" stroke-linecap="round" stroke-linejoin="round"/>
<path d="M194.364 351.474C196.714 354.792 195.056 362.602 190.839 364.538" stroke="black" stroke-width="4" stroke-miterlimit="10" stroke-linecap="round" stroke-linejoin="round"/>
<path d="M186.416 348.71C188.766 352.027 187.107 359.838 182.891 361.773" stroke="black" stroke-width="4" stroke-miterlimit="10" stroke-linecap="round" stroke-linejoin="round"/>
<path d="M135.267 161.119V197.89" stroke="black" stroke-width="6" stroke-miterlimit="10" stroke-linecap="round" stroke-linejoin="round"/>
<path d="M181.923 161.119V187.039" stroke="black" stroke-width="6" stroke-miterlimit="10" stroke-linecap="round" stroke-linejoin="round"/>
<path d="M181.922 194.849C185.091 194.849 187.659 192.281 187.659 189.112C187.659 185.944 185.091 183.375 181.922 183.375C178.754 183.375 176.186 185.944 176.186 189.112C176.186 192.281 178.754 194.849 181.922 194.849Z" fill="black"/>
<path d="M181.922 190.772C183.22 190.772 184.272 189.72 184.272 188.422C184.272 187.124 183.22 186.072 181.922 186.072C180.624 186.072 179.572 187.124 179.572 188.422C179.572 189.72 180.624 190.772 181.922 190.772Z" fill="#7E7E7E"/>
<path d="M159.528 126.905C135.474 126.905 115.913 107.413 115.913 83.2903V32.6948H203.142V83.2903C203.142 107.344 183.65 126.905 159.528 126.905Z" fill="#FFC897"/>
<path d="M159.528 120.892C135.474 120.892 115.913 101.4 115.913 77.2771V83.2905C115.913 107.344 135.405 126.905 159.528 126.905C183.581 126.905 203.142 107.413 203.142 83.2905V77.2771C203.142 101.331 183.65 120.892 159.528 120.892Z" fill="#E5A973"/>
<path d="M159.528 126.905C135.474 126.905 115.913 107.413 115.913 83.2903V32.6948H203.142V83.2903C203.142 107.344 183.65 126.905 159.528 126.905Z" stroke="black" stroke-width="4" stroke-miterlimit="10" stroke-linecap="round" stroke-linejoin="round"/>
<path d="M203.487 37.7405C203.349 35.3904 203.211 32.9712 203.142 30.6212C174.112 32.0036 144.943 31.7962 115.982 29.2388C115.775 31.9344 115.637 34.6301 115.429 37.3258C116.742 38.5008 118.125 39.7449 119.438 40.92C120.544 41.4729 121.996 42.2333 123.309 42.9244C129.115 45.9657 137.202 49.8364 144.943 51.357C147.777 51.91 150.749 52.1865 153.791 52.1173C166.854 51.9791 177.844 46.7951 182.475 44.6524C183.166 44.3068 183.719 44.0304 184.065 43.9612C184.341 43.823 184.618 43.7539 185.033 43.7539C185.862 43.7539 186.83 43.9612 188.005 44.1686C189.525 44.5142 191.322 44.8598 193.327 44.7215C195.608 44.5833 197.681 43.8921 199.686 42.5789C200.861 40.92 202.174 39.3302 203.487 37.7405Z" fill="#E5A973"/>
<path d="M182.475 11.4754C182.475 11.4754 147.57 -11.5414 118.678 14.1711C113.287 18.9403 111.144 25.7832 111.144 32.073V65.3887H115.982V41.1968C115.982 39.3997 117.227 38.0173 118.747 38.0173C121.235 38.0173 134.714 45.2057 146.119 47.2102C163.329 50.1824 179.019 42.2336 182.406 41.0586C188.212 38.985 192.912 46.1734 200.239 38.0864H200.516C202.036 38.0864 203.28 39.5379 203.28 41.2659V65.4578H208.119V32.2804C207.98 24.1243 198.58 3.66491 182.475 11.4754Z" fill="#231A17"/>
<g opacity="0.34">
<path opacity="0.34" d="M115.913 60.8267H111.075V65.3886H115.913V60.8267Z" fill="#231A17"/>
<path opacity="0.34" d="M207.98 60.8264H203.142V65.3883H207.98V60.8264Z" fill="#231A17"/>
</g>
<path d="M182.475 11.4754C182.475 11.4754 147.57 -11.5414 118.678 14.1711C113.287 18.9403 111.144 25.7832 111.144 32.073V65.3887H115.982V41.1968C115.982 39.3997 117.227 38.0173 118.747 38.0173C121.235 38.0173 134.714 45.2057 146.119 47.2102C163.329 50.1824 179.019 42.2336 182.406 41.0586C188.212 38.985 192.912 46.1734 200.239 38.0864H200.516C202.036 38.0864 203.28 39.5379 203.28 41.2659V65.4578H208.119V32.2804C207.981 24.1243 198.58 3.66491 182.475 11.4754Z" stroke="black" stroke-width="4" stroke-miterlimit="10" stroke-linecap="round" stroke-linejoin="round"/>
<path d="M152.961 33.9389C152.961 33.9389 115.499 36.3581 107.55 16.4517" stroke="black" stroke-width="4" stroke-miterlimit="10" stroke-linecap="round" stroke-linejoin="round"/>
<path d="M158.283 29.1698C158.283 29.1698 122.203 26.8888 112.803 6.98242" stroke="black" stroke-width="4" stroke-miterlimit="10" stroke-linecap="round" stroke-linejoin="round"/>
<path d="M203.142 59.9973V82.6685C207.98 82.6685 211.851 77.6228 211.851 71.3329C211.851 65.043 207.98 59.9973 203.142 59.9973Z" fill="#FFC897"/>
<path d="M203.142 61.2415V81.3552C205.976 79.489 207.911 75.6874 207.911 71.2638C207.911 66.9093 205.976 63.1077 203.142 61.2415Z" fill="#E5A973"/>
<path d="M203.142 59.9973V82.6685C207.98 82.6685 211.851 77.6228 211.851 71.3329C211.851 65.043 207.98 59.9973 203.142 59.9973Z" stroke="black" stroke-width="4" stroke-miterlimit="10" stroke-linecap="round" stroke-linejoin="round"/>
<path d="M115.982 59.9973V82.6685C111.144 82.6685 107.273 77.6228 107.273 71.3329C107.204 65.043 111.144 59.9973 115.982 59.9973Z" fill="#FFC897"/>
<path d="M115.982 61.6565C113.494 63.661 111.766 67.2552 111.766 71.3332C111.766 75.4113 113.425 79.0055 115.982 81.01V61.6565Z" fill="#E5A973"/>
<path d="M115.982 59.9973V82.6685C111.144 82.6685 107.273 77.6228 107.273 71.3329C107.204 65.043 111.144 59.9973 115.982 59.9973Z" stroke="black" stroke-width="4" stroke-miterlimit="10" stroke-linecap="round" stroke-linejoin="round"/>
<path d="M157.731 78.4524L154.828 87.9218C154.828 88.9585 158.214 88.1291 161.67 88.9585" stroke="black" stroke-width="4" stroke-miterlimit="10" stroke-linecap="round" stroke-linejoin="round"/>
<path d="M174.043 96.1467C175.08 103.335 165.818 109.694 158.56 108.381" stroke="black" stroke-width="3" stroke-miterlimit="10" stroke-linecap="round" stroke-linejoin="round"/>
<path d="M143.838 70.4341C145.441 70.4341 146.741 69.0416 146.741 67.3238C146.741 65.6059 145.441 64.2134 143.838 64.2134C142.234 64.2134 140.935 65.6059 140.935 67.3238C140.935 69.0416 142.234 70.4341 143.838 70.4341Z" stroke="black" stroke-width="2" stroke-miterlimit="10" stroke-linecap="round" stroke-linejoin="round"/>
<path d="M143.838 70.4341C145.441 70.4341 146.741 69.0416 146.741 67.3238C146.741 65.6059 145.441 64.2134 143.838 64.2134C142.234 64.2134 140.935 65.6059 140.935 67.3238C140.935 69.0416 142.234 70.4341 143.838 70.4341Z" fill="black"/>
<path d="M133.815 60.7578C135.267 59.0298 138.654 57.8547 142.663 57.8547C145.842 57.8547 148.607 58.6151 150.335 59.7901" stroke="black" stroke-width="3" stroke-miterlimit="10" stroke-linecap="round" stroke-linejoin="round"/>
<path d="M175.633 70.4341C177.236 70.4341 178.536 69.0416 178.536 67.3238C178.536 65.6059 177.236 64.2134 175.633 64.2134C174.029 64.2134 172.729 65.6059 172.729 67.3238C172.729 69.0416 174.029 70.4341 175.633 70.4341Z" stroke="black" stroke-width="2" stroke-miterlimit="10" stroke-linecap="round" stroke-linejoin="round"/>
<path d="M175.633 70.4341C177.236 70.4341 178.536 69.0416 178.536 67.3238C178.536 65.6059 177.236 64.2134 175.633 64.2134C174.029 64.2134 172.729 65.6059 172.729 67.3238C172.729 69.0416 174.029 70.4341 175.633 70.4341Z" fill="black"/>
<path d="M185.655 60.7578C184.203 59.0298 180.816 57.8547 176.808 57.8547C173.628 57.8547 170.863 58.6151 169.135 59.7901" stroke="black" stroke-width="3" stroke-miterlimit="10" stroke-linecap="round" stroke-linejoin="round"/>
</svg>
