<svg width="300" height="43" viewBox="0 0 300 43" fill="none" xmlns="http://www.w3.org/2000/svg">
<g clip-path="url(#clip0)">
<path d="M0.341797 3.84229L3.16884 35.9969L15.8541 40.2377L28.6204 35.9969L31.4474 3.84229H0.341797ZM25.3073 14.2328H10.4187L10.7508 18.2461H24.9752L23.8735 30.302L15.9432 32.4955V32.5199H15.8541L7.85899 30.302L7.37296 24.1441H11.2369L11.5204 27.2393L15.8541 28.4173L20.204 27.2393L20.6901 22.1862H7.17045L6.1336 10.3577H25.6637L25.3073 14.2328Z" fill="#F2F2F2"/>
</g>
<g clip-path="url(#clip1)">
<path d="M47.269 3.83472L50.0961 35.8962L62.8219 40.1246L75.5476 35.8962L78.3747 3.83472H47.269ZM72.6315 10.3151L72.2426 14.1466L62.9029 18.1401L62.8786 18.1482H71.9105L70.8737 30.0234L62.9191 32.3482L54.9158 29.9829L54.3974 23.9967H58.3585L58.6177 27.0991L62.8786 28.1765L67.3095 26.929L67.6092 21.9392L54.1382 21.8987V21.8906L54.122 21.8987L53.8304 18.1482L62.911 14.3653L63.4375 14.1466H53.4821L53.0122 10.3151H72.6315Z" fill="#F2F2F2"/>
</g>
<g clip-path="url(#clip2)">
<path d="M117.122 31.4919C117.099 31.5375 117.076 31.574 117.122 31.4919V31.4919ZM136.059 24.8788C134.53 24.8783 133.021 25.2294 131.65 25.905C131.201 25.0004 130.738 24.2099 130.662 23.617C130.571 22.9253 130.472 22.5148 130.578 21.6939C130.685 20.873 131.163 19.71 131.156 19.6264C131.148 19.5428 131.049 19.1247 130.069 19.1171C129.088 19.1095 128.245 19.3071 128.146 19.5656C127.973 20.0379 127.839 20.5234 127.744 21.0174C127.569 21.9067 125.783 25.0841 124.772 26.7411C124.438 26.095 124.157 25.5249 124.096 25.0688C124.005 24.3771 123.906 23.9667 124.012 23.1457C124.119 22.3248 124.597 21.1618 124.59 21.0782C124.582 20.9946 124.483 20.5765 123.504 20.5689C122.524 20.5613 121.679 20.759 121.581 21.0174C121.482 21.2758 121.375 21.8839 121.178 22.4692C120.98 23.0545 118.602 28.345 117.979 29.7208C117.66 30.4201 117.386 30.9826 117.189 31.3626C117.158 31.4235 117.135 31.4615 117.12 31.4919C117.143 31.4539 117.158 31.4159 117.158 31.4311C116.991 31.7579 116.892 31.9403 116.892 31.9403V31.9479C116.763 32.1912 116.618 32.4116 116.55 32.4116C116.504 32.4116 116.406 31.7731 116.573 30.899C116.93 29.0595 117.774 26.2014 117.766 26.1026C117.759 26.0494 117.926 25.5553 117.211 25.2893C116.52 25.0384 116.269 25.4565 116.208 25.4565C116.147 25.4565 116.102 25.6085 116.102 25.6085C116.102 25.6085 116.869 22.3856 114.628 22.3856C113.229 22.3856 111.283 23.9211 110.327 25.3121C109.726 25.6389 108.427 26.3458 107.058 27.0984C106.534 27.3872 105.994 27.6837 105.485 27.9649C105.447 27.9269 105.417 27.8889 105.379 27.8509C102.658 24.9472 97.6352 22.8949 97.8481 18.9955C97.9241 17.5741 98.4182 13.8419 107.507 9.31154C114.956 5.60215 120.912 6.62071 121.937 8.88587C123.412 12.1164 118.753 18.1289 111.017 18.9955C108.069 19.3223 106.519 18.1822 106.131 17.7565C105.728 17.308 105.667 17.2852 105.515 17.3688C105.265 17.5056 105.424 17.9009 105.515 18.1365C105.743 18.737 106.694 19.8012 108.312 20.3333C109.733 20.797 113.19 21.0554 117.37 19.4364C122.066 17.6273 125.722 12.5877 124.65 8.36899C123.558 4.08191 116.45 2.67569 109.728 5.06247C105.723 6.48389 101.392 8.71865 98.276 11.6299C94.575 15.0961 93.9828 18.1137 94.2261 19.3755C95.0919 23.8527 101.263 26.7715 103.732 28.9303C103.611 28.9987 103.497 29.0595 103.39 29.1203C102.152 29.736 97.4475 32.1988 96.27 34.7984C94.9398 37.7477 96.4905 39.8608 97.5083 40.1496C100.685 41.0314 103.937 39.4427 105.685 36.8355C107.432 34.2283 107.22 30.823 106.415 29.2723C106.407 29.2495 106.392 29.2343 106.384 29.2115C106.703 29.0215 107.03 28.8314 107.357 28.6414C107.987 28.269 108.603 27.9269 109.143 27.6305C108.839 28.4514 108.618 29.4395 108.504 30.8686C108.367 32.5408 109.059 34.7072 109.956 35.5585C110.351 35.931 110.829 35.9386 111.126 35.9386C112.175 35.9386 112.646 35.072 113.17 34.0383C113.816 32.7765 114.386 31.3094 114.386 31.3094C114.386 31.3094 113.671 35.2773 115.625 35.2773C116.339 35.2773 117.053 34.3575 117.373 33.8863V33.8939C117.373 33.8939 117.388 33.8634 117.426 33.8026C117.503 33.6886 117.541 33.6202 117.541 33.6202V33.5974C117.829 33.1033 118.46 31.9707 119.41 30.1008C120.641 27.6837 121.818 24.666 121.818 24.666C121.932 25.3293 122.09 25.9845 122.29 26.6271C122.503 27.3492 122.951 28.1397 123.308 28.9075C123.019 29.3027 122.845 29.5308 122.845 29.5308C122.845 29.5366 122.848 29.542 122.852 29.546C122.624 29.85 122.366 30.1769 122.1 30.4961C121.128 31.6515 119.971 32.9741 119.819 33.3542C119.637 33.8026 119.683 34.1371 120.032 34.3955C120.291 34.5932 120.747 34.6236 121.225 34.5856C122.099 34.5248 122.715 34.3119 123.011 34.1751C123.558 33.9791 124.074 33.7079 124.546 33.3694C125.496 32.6701 126.074 31.6667 126.02 30.3441C125.99 29.6144 125.754 28.8847 125.466 28.2005C125.549 28.0789 125.64 27.9497 125.724 27.8205C127.228 25.6237 128.391 23.2126 128.391 23.2126C128.505 23.876 128.662 24.5311 128.863 25.1737C129.045 25.7894 129.401 26.466 129.728 27.1273C128.315 28.275 127.441 29.6052 127.137 30.4794C126.575 32.0984 127.015 32.8282 127.844 32.9954C128.216 33.0714 128.748 32.8966 129.144 32.7293C129.731 32.5338 130.284 32.2493 130.785 31.8856C131.735 31.1863 132.654 30.2057 132.593 28.8755C132.57 28.275 132.403 27.6745 132.183 27.0969C133.376 26.5952 134.926 26.3215 136.902 26.5496C141.135 27.0436 141.963 29.6889 141.804 30.791C141.644 31.8932 140.755 32.5089 140.458 32.6913C140.162 32.8738 140.07 32.9422 140.093 33.079C140.131 33.2766 140.268 33.269 140.519 33.2234C140.869 33.1626 142.738 32.3265 142.821 30.2818C142.943 27.6973 140.458 24.8545 136.056 24.8773L136.059 24.8788ZM103.436 35.8778C102.038 37.4056 100.077 37.9833 99.2338 37.4968C98.3292 36.9708 98.6865 34.7224 100.411 33.0942C101.46 32.106 102.812 31.1939 103.709 30.6314C103.915 30.5098 104.211 30.3274 104.576 30.1069C104.637 30.0689 104.667 30.0537 104.667 30.0537C104.736 30.0081 104.812 29.9701 104.888 29.9245C105.518 32.2353 104.91 34.2724 103.436 35.8762V35.8778ZM113.649 28.9303C113.162 30.1237 112.137 33.1641 111.514 33.0045C110.981 32.8677 110.655 30.5493 111.407 28.269C111.787 27.1212 112.593 25.753 113.072 25.2209C113.839 24.3619 114.682 24.0883 114.88 24.4303C115.146 24.8788 113.953 28.1853 113.649 28.9303ZM122.086 32.9589C121.881 33.0653 121.691 33.1337 121.6 33.0805C121.531 33.0425 121.683 32.8981 121.683 32.8981C121.683 32.8981 122.74 31.7655 123.158 31.2486C123.401 30.9446 123.682 30.5873 123.986 30.1921C123.986 30.2301 123.993 30.2681 123.993 30.3137C123.983 31.6743 122.677 32.594 122.084 32.9589H122.086ZM128.591 31.4767C128.439 31.3703 128.462 31.013 128.971 29.9032C129.169 29.4699 129.624 28.7402 130.415 28.0409C130.505 28.3056 130.554 28.5825 130.56 28.8619C130.552 30.5721 129.328 31.2106 128.592 31.4767H128.591Z" fill="#F2F2F2"/>
</g>
<g clip-path="url(#clip3)">
<path d="M158.485 3.83911V40.1893H194.836V3.83911H158.485ZM178.267 32.189C178.267 35.7266 176.19 37.3413 173.163 37.3413C170.429 37.3413 168.847 35.9295 168.035 34.2175L170.818 32.5379C171.354 33.4872 171.841 34.2905 173.017 34.2905C174.137 34.2905 174.851 33.8523 174.851 32.1403V20.5294H178.267V32.189ZM186.348 37.3413C183.176 37.3413 181.123 35.8321 180.125 33.8523L182.908 32.2458C183.638 33.4385 184.596 34.3229 186.275 34.3229C187.687 34.3229 188.596 33.617 188.596 32.6353C188.596 31.4669 187.671 31.0531 186.105 30.3634L185.253 29.9982C182.786 28.9516 181.156 27.629 181.156 24.8459C181.156 22.282 183.111 20.3346 186.154 20.3346C188.328 20.3346 189.886 21.0892 191.006 23.069L188.344 24.7729C187.76 23.7262 187.127 23.3124 186.146 23.3124C185.148 23.3124 184.515 23.9453 184.515 24.7729C184.515 25.7953 185.148 26.2091 186.616 26.8501L187.468 27.2152C190.373 28.4566 192.004 29.7305 192.004 32.5866C192.004 35.6536 189.586 37.3413 186.348 37.3413Z" fill="#F2F2F2"/>
</g>
<path d="M225.748 23.023H231.939L228.843 15.5814L225.748 23.023ZM228.843 3.84229L211.962 9.88652L214.545 32.2843L228.843 40.2377L243.141 32.2843L245.725 9.88652L228.843 3.84229ZM239.421 31.61H235.472L233.344 26.2969H224.359L222.23 31.61H218.274L228.843 7.86365L239.421 31.61Z" fill="#F2F2F2"/>
<g clip-path="url(#clip4)">
<path d="M298.858 20.2601L282.833 4.23148C282.39 3.78827 281.788 3.53931 281.161 3.53931C280.534 3.53931 279.933 3.78827 279.489 4.23148L276.157 7.56095L280.379 11.7828C282.596 11.0338 284.696 13.157 283.935 15.3622L288.004 19.4317C290.809 18.4647 293.018 21.972 290.911 24.0772C288.74 26.2479 285.157 23.842 286.322 21.0173L282.524 17.224V27.2092C284.597 28.2368 284.348 30.6386 283.268 31.7162C282.74 32.2436 282.024 32.5398 281.278 32.5398C280.532 32.5398 279.817 32.2436 279.289 31.7162C277.849 30.274 278.382 27.8721 280.211 27.1272V17.0478C278.507 16.3505 278.195 14.5288 278.684 13.3603L274.522 9.19331L263.531 20.1856C263.087 20.6291 262.838 21.2305 262.838 21.8577C262.838 22.4848 263.087 23.0863 263.531 23.5298L279.56 39.5584C280.004 40.0016 280.605 40.2505 281.232 40.2505C281.859 40.2505 282.46 40.0016 282.904 39.5584L298.858 23.6044C299.301 23.1609 299.55 22.5594 299.55 21.9322C299.55 21.3051 299.301 20.7036 298.858 20.2601Z" fill="#F2F2F2"/>
</g>
<defs>
<clipPath id="clip0">
<rect width="31.1056" height="41.5947" fill="white" transform="translate(0.341797 1.24255)"/>
</clipPath>
<clipPath id="clip1">
<rect width="31.1056" height="41.4742" fill="white" transform="translate(47.269 1.24255)"/>
</clipPath>
<clipPath id="clip2">
<rect width="48.6477" height="38.9182" fill="white" transform="translate(94.178 2.68933)"/>
</clipPath>
<clipPath id="clip3">
<rect width="36.3502" height="41.543" fill="white" transform="translate(158.485 1.24255)"/>
</clipPath>
<clipPath id="clip4">
<rect width="36.7119" height="41.9564" fill="white" transform="translate(262.838 0.916748)"/>
</clipPath>
</defs>
</svg>

